<svg width="180" height="180" viewBox="0 0 180 180" fill="none" xmlns="http://www.w3.org/2000/svg">
<rect width="180" height="180" fill="#090D16"/>
<path d="M70.2713 25.2539C65.701 26.0918 61.3084 29.3926 59.3534 33.5059C58.8456 34.5977 56.7635 41.4277 54.0467 50.8984C51.6092 59.4805 49.3748 67.2754 49.0956 68.2149L48.5877 69.9414H41.9354C38.2791 69.9668 34.7752 70.0684 34.1659 70.1699C32.1092 70.5762 30.8143 71.9981 30.662 74.0547C30.535 75.8066 31.2713 77.1523 32.8456 77.9902C33.9374 78.5488 34.1405 78.5742 40.7928 78.5742H47.5975V93.5547C47.5975 101.781 47.5721 108.535 47.5467 108.535C47.4959 108.535 46.785 108.18 45.9725 107.773C42.3924 105.945 39.0409 107.621 39.1678 111.176C39.1932 111.887 41.1229 121.459 43.5096 132.453C48.1815 154.188 48.0038 153.629 49.9842 154.518C50.9745 154.975 52.0155 155 68.367 155H85.6834V142.203V129.406L70.8299 121.307L55.9764 113.232L56.0018 105.361V97.4902L56.4588 99.2676C57.9315 105.285 62.1717 109.855 68.037 111.76C69.662 112.268 70.6014 112.42 72.7342 112.42C76.0096 112.471 77.5077 112.115 80.5799 110.643C83.9061 109.043 86.3944 106.605 88.0702 103.203C88.7303 101.883 89.3905 100.08 89.5682 99.1914C89.7205 98.3281 89.9237 97.6172 89.9998 97.6172C90.076 97.6172 90.2791 98.3281 90.4315 99.1914C90.6092 100.08 91.2694 101.883 91.9295 103.203C93.6053 106.605 96.0936 109.043 99.4198 110.643C102.492 112.115 103.99 112.471 107.265 112.42C109.398 112.42 110.338 112.268 111.963 111.76C117.828 109.855 121.89 105.488 123.49 99.3945L123.998 97.4902V105.361L124.023 113.232L109.17 121.307L94.3162 129.406V142.203V155H111.658C127.984 155 129.025 154.975 130.015 154.518C131.996 153.629 131.818 154.188 136.49 132.453C138.877 121.459 140.806 111.887 140.832 111.176C140.959 107.621 137.607 105.945 134.027 107.773C133.215 108.18 132.504 108.535 132.478 108.535C132.428 108.535 132.402 101.781 132.402 93.5547V78.5742H139.207C145.859 78.5742 146.062 78.5488 147.154 77.9902C149.947 76.5176 150.176 72.8106 147.586 70.8809C146.545 70.0938 145.123 69.9668 138.064 69.9414H131.412L130.904 68.2149C130.625 67.2754 128.365 59.4297 125.902 50.7715C122.805 39.9043 121.154 34.4707 120.519 33.252C118.793 29.7988 115.137 26.8027 111.176 25.6094C108.89 24.9238 104.599 24.9746 102.416 25.7109C100.029 26.5234 98.0233 27.8184 95.9666 29.8242C93.5545 32.1856 92.4119 32.7441 89.9998 32.7441C87.5623 32.7441 86.4959 32.2109 83.9061 29.7227C81.7733 27.666 80.326 26.7266 77.8631 25.8379C75.9842 25.1524 72.4041 24.8731 70.2713 25.2539ZM124.023 82.7637V86.9531H89.9998H55.9764V82.7637V78.5742H89.9998H124.023V82.7637Z" fill="#DC2626"/>
</svg>
