<svg width="180" height="180" viewBox="0 0 180 180" fill="none" xmlns="http://www.w3.org/2000/svg">
<rect width="180" height="180" fill="#1C1C21"/>
<path d="M64.4602 15.3223C58.6594 16.3857 53.0842 20.5752 50.6027 25.7959C49.9582 27.1816 47.3156 35.8506 43.8674 47.8711C40.7736 58.7637 37.9377 68.6572 37.5832 69.8496L36.9387 72.041H28.4953C23.8547 72.0732 19.4074 72.2021 18.634 72.3311C16.0236 72.8467 14.3801 74.6514 14.1867 77.2617C14.0256 79.4854 14.9602 81.1934 16.9582 82.2568C18.344 82.9658 18.6018 82.998 27.0451 82.998H35.6818V102.012C35.6818 112.453 35.6496 121.025 35.6174 121.025C35.5529 121.025 34.6506 120.574 33.6193 120.059C29.0754 117.738 24.8215 119.865 24.9826 124.377C25.0149 125.279 27.4641 137.429 30.4934 151.383C36.4231 178.969 36.1975 178.26 38.7111 179.388C39.968 179.968 41.2893 180 62.0432 180H84.0217V163.758V147.516L65.1691 137.235L46.3166 126.987L46.3488 116.997V107.007L46.9289 109.263C48.7981 116.9 54.1799 122.701 61.6242 125.118C63.6867 125.763 64.8791 125.956 67.5861 125.956C71.7434 126.021 73.6447 125.569 77.5441 123.7C81.7658 121.67 84.924 118.576 87.051 114.258C87.8889 112.582 88.7268 110.294 88.9523 109.166C89.1457 108.07 89.4035 107.168 89.5002 107.168C89.5969 107.168 89.8547 108.07 90.048 109.166C90.2736 110.294 91.1115 112.582 91.9494 114.258C94.0764 118.576 97.2346 121.67 101.456 123.7C105.356 125.569 107.257 126.021 111.414 125.956C114.121 125.956 115.314 125.763 117.376 125.118C124.821 122.701 129.977 117.158 132.007 109.424L132.652 107.007V116.997L132.684 126.987L113.831 137.235L94.9787 147.516V163.758V180H116.989C137.711 180 139.032 179.968 140.289 179.388C142.803 178.26 142.577 178.969 148.507 151.383C151.536 137.429 153.986 125.279 154.018 124.377C154.179 119.865 149.925 117.738 145.381 120.059C144.35 120.574 143.447 121.025 143.415 121.025C143.351 121.025 143.319 112.453 143.319 102.012V82.998H151.955C160.399 82.998 160.656 82.9658 162.042 82.2568C165.587 80.3877 165.877 75.6826 162.59 73.2334C161.269 72.2344 159.464 72.0732 150.505 72.041H142.062L141.417 69.8496C141.063 68.6572 138.195 58.6992 135.069 47.71C131.137 33.917 129.042 27.0205 128.237 25.4736C126.045 21.0908 121.404 17.2881 116.377 15.7734C113.477 14.9033 108.03 14.9678 105.259 15.9023C102.23 16.9336 99.6838 18.5771 97.0734 21.123C94.0119 24.1201 92.5617 24.8291 89.5002 24.8291C86.4064 24.8291 85.0529 24.1523 81.7658 20.9941C79.0588 18.3838 77.2219 17.1914 74.0959 16.0635C71.7111 15.1934 67.1672 14.8389 64.4602 15.3223ZM132.684 88.3154V93.6328H89.5002H46.3166V88.3154V82.998H89.5002H132.684V88.3154Z" fill="#B91C1C"/>
</svg>
