<svg width="180" height="180" viewBox="0 0 180 180" fill="none" xmlns="http://www.w3.org/2000/svg">
<rect width="180" height="180" fill="#090D16"/>
<path d="M67.2364 15.293C61.9629 16.2598 56.8946 20.0684 54.6387 24.8145C54.0528 26.0742 51.6504 33.9551 48.5157 44.8828C45.7032 54.7852 43.1251 63.7793 42.8028 64.8633L42.2168 66.8555H34.5411C30.3223 66.8848 26.2794 67.002 25.5762 67.1191C23.2032 67.5879 21.709 69.2285 21.5333 71.6016C21.3868 73.6231 22.2364 75.1758 24.0528 76.1426C25.3126 76.7871 25.5469 76.8164 33.2227 76.8164H41.0743V94.1016C41.0743 103.594 41.045 111.387 41.0157 111.387C40.9571 111.387 40.1368 110.977 39.1993 110.508C35.0684 108.398 31.2012 110.332 31.3477 114.434C31.377 115.254 33.6036 126.299 36.3575 138.984C41.7481 164.063 41.543 163.418 43.8282 164.443C44.9708 164.971 46.1719 165 65.0391 165H85.0196V150.234V135.469L67.8809 126.123L50.7422 116.807L50.7715 107.725V98.6426L51.2989 100.693C52.9981 107.637 57.8907 112.91 64.6583 115.107C66.5333 115.693 67.6172 115.869 70.0782 115.869C73.8575 115.928 75.586 115.518 79.1309 113.818C82.9688 111.973 85.8399 109.16 87.7735 105.234C88.5352 103.711 89.2969 101.631 89.502 100.605C89.6778 99.6094 89.9122 98.7891 90 98.7891C90.0879 98.7891 90.3223 99.6094 90.4981 100.605C90.7032 101.631 91.4649 103.711 92.2266 105.234C94.1602 109.16 97.0313 111.973 100.869 113.818C104.414 115.518 106.143 115.928 109.922 115.869C112.383 115.869 113.467 115.693 115.342 115.107C122.109 112.91 126.797 107.871 128.643 100.84L129.229 98.6426V107.725L129.258 116.807L112.119 126.123L94.9805 135.469V150.234V165H114.99C133.828 165 135.029 164.971 136.172 164.443C138.457 163.418 138.252 164.063 143.643 138.984C146.397 126.299 148.623 115.254 148.652 114.434C148.799 110.332 144.932 108.398 140.801 110.508C139.863 110.977 139.043 111.387 139.014 111.387C138.955 111.387 138.926 103.594 138.926 94.1016V76.8164H146.777C154.453 76.8164 154.688 76.7871 155.947 76.1426C159.17 74.4434 159.434 70.166 156.445 67.9395C155.244 67.0313 153.604 66.8848 145.459 66.8555H137.783L137.197 64.8633C136.875 63.7793 134.268 54.7266 131.426 44.7363C127.852 32.1973 125.947 25.9277 125.215 24.5215C123.223 20.5371 119.004 17.0801 114.434 15.7031C111.797 14.9121 106.846 14.9707 104.326 15.8203C101.572 16.7578 99.2579 18.252 96.8848 20.5664C94.1016 23.291 92.7832 23.9356 90 23.9356C87.1875 23.9356 85.9571 23.3203 82.9688 20.4492C80.5079 18.0762 78.8379 16.9922 75.9961 15.9668C73.8282 15.1758 69.6973 14.8535 67.2364 15.293ZM129.258 81.6504V86.4844H90H50.7422V81.6504V76.8164H90H129.258V81.6504Z" fill="#DC2626"/>
</svg>
