<?xml version="1.0" standalone="no"?>
<!DOCTYPE svg PUBLIC "-//W3C//DTD SVG 20010904//EN"
 "http://www.w3.org/TR/2001/REC-SVG-20010904/DTD/svg10.dtd">
<svg version="1.0" xmlns="http://www.w3.org/2000/svg"
 width="512.000000pt" height="512.000000pt" viewBox="0 0 512.000000 512.000000"
 preserveAspectRatio="xMidYMid meet">

<g transform="translate(0.000000,512.000000) scale(0.100000,-0.100000)"
fill="#000000" stroke="none">
<path d="M1783 5110 c-180 -33 -353 -163 -430 -325 -20 -43 -102 -312 -209
-685 -96 -338 -184 -645 -195 -682 l-20 -68 -262 0 c-144 -1 -282 -5 -306 -9
-81 -16 -132 -72 -138 -153 -5 -69 24 -122 86 -155 43 -22 51 -23 313 -23
l268 0 0 -590 c0 -324 -1 -590 -2 -590 -2 0 -30 14 -62 30 -141 72 -273 6
-268 -134 1 -28 77 -405 171 -838 184 -856 177 -834 255 -869 39 -18 80 -19
724 -19 l682 0 0 504 0 504 -585 319 -585 318 1 310 0 310 18 -70 c58 -237
225 -417 456 -492 64 -20 101 -26 185 -26 129 -2 188 12 309 70 131 63 229
159 295 293 26 52 52 123 59 158 6 34 14 62 17 62 3 0 11 -28 17 -62 7 -35 33
-106 59 -158 66 -134 164 -230 295 -293 121 -58 180 -72 309 -70 84 0 121 6
185 26 231 75 391 247 454 487 l20 75 0 -310 1 -310 -585 -318 -585 -319 0
-504 0 -504 683 0 c643 0 684 1 723 19 78 35 71 13 255 869 94 433 170 810
171 838 5 140 -127 206 -268 134 -32 -16 -60 -30 -61 -30 -2 0 -3 266 -3 590
l0 590 268 0 c262 0 270 1 313 23 110 58 119 204 17 280 -41 31 -97 36 -375
37 l-262 0 -20 68 c-11 37 -100 346 -197 687 -122 428 -187 642 -212 690 -68
136 -212 254 -368 301 -90 27 -259 25 -345 -4 -94 -32 -173 -83 -254 -162 -95
-93 -140 -115 -235 -115 -96 0 -138 21 -240 119 -84 81 -141 118 -238 153 -74
27 -215 38 -299 23z m2117 -2265 l0 -165 -1340 0 -1340 0 0 165 0 165 1340 0
1340 0 0 -165z"/>
</g>
</svg>
